<?xml version="1.0" encoding="UTF-8"?>
<svg xmlns="http://www.w3.org/2000/svg" version="1.1" viewBox="0 0 2366.73 1080">
  <!-- Generator: Adobe Illustrator 29.6.1, SVG Export Plug-In . SVG Version: 2.1.1 Build 9)  -->
  <defs>
    <style>
      .st0 {
        fill: #221e1f;
      }

      .st1 {
        fill: #00823d;
        opacity: .1;
      }

      .st2 {
        fill: #0eaa4a;
      }

      .st3 {
        fill: none;
        stroke: #076f38;
        stroke-miterlimit: 10;
      }

      .st4 {
        fill: #076f38;
      }
    </style>
  </defs>
  <g id="Layer_1">
    <g>
      <circle class="st2" cx="1104.76" cy="681.56" r="41.25"/>
      <g>
        <circle class="st2" cx="1334.7" cy="552.26" r="41.25"/>
        <circle class="st2" cx="1694.7" cy="454.69" r="41.25"/>
      </g>
      <polygon class="st4" points="1303.36 713.44 1215.62 713.44 1078.14 547.94 1078.14 413.44 1153.14 413.44 1153.14 556.17 1190.69 510.94 1278.45 510.94 1206.8 597.18 1206.79 597.19 1303.36 713.44"/>
      <g>
        <polygon class="st4" points="1297.2 713.44 1372.2 713.44 1372.2 604.96 1297.2 624.55 1297.2 713.44"/>
        <polygon class="st4" points="1657.2 530.53 1657.2 713.44 1732.2 713.44 1732.2 510.94 1732.2 510.94 1657.2 530.53"/>
        <path class="st4" d="M1563.45,655.31c0,4.15-3.36,7.5-7.5,7.5s-7.5-3.35-7.5-7.5v-96.38l-67.5,17.63v78.75c0,4.15-3.36,7.5-7.5,7.5s-7.5-3.35-7.5-7.5v-74.83l-75,19.59v44c0,43.5,35.25,78.75,78.75,78.75,16.73,0,32.25-5.22,45-14.12,12.75,8.91,28.27,14.12,45,14.12,43.49,0,78.75-35.25,78.75-78.75v-108.64l-75,19.59v100.3Z"/>
      </g>
    </g>
    <g>
      <circle class="st2" cx="-1619.38" cy="681.56" r="41.25"/>
      <g>
        <circle class="st2" cx="-1389.44" cy="552.26" r="41.25"/>
        <circle class="st2" cx="-1029.44" cy="454.69" r="41.25"/>
      </g>
      <polygon class="st4" points="-1420.78 713.44 -1508.52 713.44 -1646 547.94 -1646 413.44 -1571 413.44 -1571 556.17 -1533.45 510.94 -1445.69 510.94 -1517.34 597.18 -1517.35 597.19 -1420.78 713.44"/>
      <g>
        <polygon class="st4" points="-1426.94 713.44 -1351.94 713.44 -1351.94 604.96 -1426.94 624.55 -1426.94 713.44"/>
        <polygon class="st4" points="-1066.94 530.53 -1066.94 713.44 -991.94 713.44 -991.94 510.94 -991.94 510.94 -1066.94 530.53"/>
        <path class="st4" d="M-1160.69,655.31c0,4.15-3.36,7.5-7.5,7.5s-7.5-3.35-7.5-7.5v-96.38l-67.5,17.63v78.75c0,4.15-3.36,7.5-7.5,7.5s-7.5-3.35-7.5-7.5v-74.83l-75,19.59v44c0,43.5,35.25,78.75,78.75,78.75,16.73,0,32.25-5.22,45-14.12,12.75,8.91,28.27,14.12,45,14.12,43.49,0,78.75-35.25,78.75-78.75v-108.64l-75,19.59v100.3Z"/>
      </g>
    </g>
  </g>
  <g id="Layer_2">
    <g>
      <g>
        <circle class="st4" cx="782.48" cy="410.41" r="25.97"/>
        <polygon class="st4" points="836.86 413.15 987.38 341.55 827.59 374.58 836.86 413.15"/>
      </g>
      <path class="st2" d="M924.28,665.09c40.28-29.78,64.23-77.09,64.23-127.24,0-7.6-.55-15.28-1.64-22.8-6.85-47.5-34.87-88.96-75.88-113.25l-64.94,30.89c-2.41,1.15-1.89,4.7.75,5.14,40.75,6.74,74.36,38.08,82.88,79.47,1.38,6.71,2.08,13.63,2.08,20.56s-.7,13.85-2.08,20.58c-4.55,22.07-16.59,42.28-33.91,56.92-17.52,14.8-39.79,23.29-62.69,23.89-1.82.03-3.59.03-5.46,0-37.02-.68-72.02-15.31-98.57-41.2-22.79-22.2-37.82-51.67-42.33-82.99-1-6.91-1.51-13.95-1.51-20.94,0-77.06,60.36-140.28,136.28-144.88l-13.4-55.79c-100.88,11.12-179.62,96.86-179.62,200.67,0,88.73,58.36,167.25,142.68,193.06l-5.61,26.27h56.99l3.73-17.49s.04,0,.05,0h.52c.2.01.4.01.6.01,1.96.03,3.88.03,5.84,0,.2,0,.4,0,.6,0h.55c11.2-.29,22.31-1.76,33.15-4.37v21.85h56.7v-48.34Z"/>
    </g>
    <g>
      <g>
        <circle class="st4" cx="-1941.66" cy="410.41" r="25.97"/>
        <polygon class="st4" points="-1887.28 413.15 -1736.76 341.55 -1896.54 374.58 -1887.28 413.15"/>
      </g>
      <path class="st2" d="M-1799.85,665.09c40.28-29.78,64.23-77.09,64.23-127.24,0-7.6-.55-15.28-1.64-22.8-6.85-47.5-34.87-88.96-75.88-113.25l-64.94,30.89c-2.41,1.15-1.89,4.7.75,5.14,40.75,6.74,74.36,38.08,82.88,79.47,1.38,6.71,2.08,13.63,2.08,20.56s-.7,13.85-2.08,20.58c-4.55,22.07-16.59,42.28-33.91,56.92-17.52,14.8-39.79,23.29-62.69,23.89-1.82.03-3.59.03-5.46,0-37.02-.68-72.02-15.31-98.57-41.2-22.79-22.2-37.82-51.67-42.33-82.99-1-6.91-1.51-13.95-1.51-20.94,0-77.06,60.36-140.28,136.28-144.88l-13.4-55.79c-100.88,11.12-179.62,96.86-179.62,200.67,0,88.73,58.36,167.25,142.68,193.06l-5.61,26.27h56.99l3.73-17.49s.04,0,.05,0h.52c.2.01.4.01.6.01,1.96.03,3.88.03,5.84,0,.2,0,.4,0,.6,0h.55c11.2-.29,22.31-1.76,33.15-4.37v21.85h56.7v-48.34Z"/>
    </g>
  </g>
  <g id="Layer_3">
    <line class="st3" x1="-2295.79" y1="413.44" x2="-493.85" y2="413.44"/>
    <line class="st3" x1="-2348.42" y1="293.44" x2="-493.85" y2="293.44"/>
    <line class="st3" x1="-2295.79" y1="413.44" x2="-493.85" y2="413.44"/>
    <line class="st3" x1="-493.85" y1="713.44" x2="-2348.42" y2="713.44"/>
    <path class="st0" d="M-2207.82,571.76l-3.73-6.46c-1.52-2.47-2.47-4.08-3.38-5.77h-.09c-.82,1.69-1.65,3.25-3.17,5.81l-3.51,6.42h-4.34l8.94-14.79-8.59-14.45h4.38l3.86,6.85c1.08,1.91,1.91,3.38,2.69,4.95h.13c.82-1.73,1.56-3.08,2.65-4.95l3.99-6.85h4.34l-8.89,14.23,9.11,15.01h-4.38Z"/>
    <g>
      <path class="st0" d="M-2393,500.61h-.09l-4.9,2.65-.74-2.91,6.16-3.3h3.25v28.2h-3.69v-24.64Z"/>
      <path class="st0" d="M-2378.73,522.99c0-1.61,1.08-2.73,2.6-2.73s2.56,1.13,2.56,2.73-1,2.73-2.6,2.73c-1.52,0-2.56-1.17-2.56-2.73Z"/>
      <path class="st0" d="M-2358.26,525.25v-7.68h-13.1v-2.52l12.58-18h4.12v17.53h3.95v2.99h-3.95v7.68h-3.6ZM-2358.26,514.58v-9.41c0-1.48.04-2.95.13-4.42h-.13c-.87,1.65-1.56,2.86-2.34,4.16l-6.9,9.59v.09h9.24Z"/>
      <path class="st0" d="M-2330.45,525.25l-3.73-6.46c-1.52-2.47-2.47-4.08-3.38-5.77h-.09c-.82,1.69-1.65,3.25-3.17,5.81l-3.51,6.42h-4.34l8.94-14.79-8.59-14.45h4.38l3.86,6.85c1.08,1.91,1.91,3.38,2.69,4.95h.13c.82-1.73,1.56-3.08,2.65-4.95l3.99-6.85h4.34l-8.89,14.23,9.11,15.01h-4.38Z"/>
    </g>
    <line class="st3" x1="-2337.88" y1="293.44" x2="-2337.88" y2="452.24"/>
    <line class="st3" x1="-2214.77" y1="410.41" x2="-2214.77" y2="534.09"/>
    <line class="st3" x1="-2337.88" y1="554.64" x2="-2337.88" y2="713.44"/>
    <rect class="st1" x="-1735.63" y="1.69" width="75" height="1080"/>
    <rect class="st1" x="-1646.07" y="1.69" width="75" height="1080"/>
    <rect class="st1" x="-1332.99" y="1.69" width="75" height="1080"/>
    <rect class="st1" x="-1160.49" y="1.69" width="75" height="1080"/>
    <rect class="st1" x="-1242.99" y="1.69" width="67.5" height="1080"/>
    <rect class="st1" x="-1066.74" y="1.69" width="75" height="1080"/>
    <path d="M-1608.62,259.54l1.41-2.47h1.37l-1.98,3.18,1.99,3.19h-1.36l-1.43-2.38-1.42,2.38h-1.37l1.97-3.19-1.96-3.18h1.38l1.39,2.47Z"/>
    <rect class="st1" x="-1426.94" y="1.69" width="75" height="1080"/>
    <path d="M-1389.49,259.54l1.41-2.47h1.37l-1.98,3.18,1.99,3.19h-1.36l-1.43-2.38-1.42,2.38h-1.37l1.97-3.19-1.96-3.18h1.38l1.39,2.47Z"/>
    <path d="M-1702.13,259.54l1.41-2.47h1.37l-1.98,3.18,1.99,3.19h-1.36l-1.43-2.38-1.42,2.38h-1.37l1.97-3.19-1.96-3.18h1.38l1.39,2.47Z"/>
    <path d="M-1295.5,259.54l1.41-2.47h1.37l-1.98,3.18,1.99,3.19h-1.36l-1.43-2.38-1.42,2.38h-1.37l1.97-3.19-1.96-3.18h1.38l1.39,2.47Z"/>
    <path d="M-1123,259.54l1.41-2.47h1.37l-1.98,3.18,1.99,3.19h-1.36l-1.43-2.38-1.42,2.38h-1.37l1.97-3.19-1.96-3.18h1.38l1.39,2.47Z"/>
    <path d="M-1029.25,259.54l1.41-2.47h1.37l-1.98,3.18,1.99,3.19h-1.36l-1.43-2.38-1.42,2.38h-1.37l1.97-3.19-1.96-3.18h1.38l1.39,2.47Z"/>
    <g>
      <path d="M-1220.63,259.19c0-2.76,1.17-4.36,3.12-4.36s3.11,1.6,3.12,4.36c0,2.78-1.15,4.36-3.12,4.36s-3.12-1.58-3.12-4.36ZM-1217.51,262.44c1.14,0,1.83-1.13,1.83-3.25s-.69-3.26-1.83-3.27c-1.14,0-1.83,1.16-1.83,3.27,0,2.12.68,3.25,1.83,3.25Z"/>
      <path d="M-1213.37,262.68c0-.46.38-.83.83-.83s.83.38.83.83c0,.46-.38.83-.83.83-.46,0-.84-.38-.83-.83Z"/>
      <path d="M-1204.2,258.88c0,2.98-1.28,4.66-3.32,4.66-1.56,0-2.65-.97-2.86-2.34h1.28c.18.71.73,1.21,1.58,1.22,1.31,0,2.07-1.14,2.09-3.08h-.11c-.46.71-1.25,1.15-2.17,1.15-1.52,0-2.74-1.17-2.74-2.79s1.2-2.88,3.05-2.87c1.56.01,3.19.95,3.2,4.05ZM-1207.42,259.44c1.03,0,1.82-.83,1.82-1.77s-.76-1.76-1.79-1.76-1.8.8-1.79,1.77c0,.98.74,1.76,1.77,1.76Z"/>
      <path d="M-1200.44,259.54l1.41-2.47h1.37l-1.98,3.18,1.99,3.19h-1.36l-1.43-2.38-1.42,2.38h-1.37l1.97-3.19-1.96-3.18h1.38l1.39,2.47Z"/>
    </g>
    <line class="st3" x1="-2214.77" y1="592.38" x2="-2214.77" y2="716.05"/>
  </g>
</svg>