<svg xmlns="http://www.w3.org/2000/svg" viewBox="0 0 320 180" role="img" aria-label="CoCoMeet 코코밋">
  <g transform="translate(64 60)">
    <g fill="#14b8a6">
      <path d="M13.5 22.1c1.8-7.2 6.3-10.8 13.5-10.8 10.8 0 12.15 8.1 17.55 9.45 3.6.9 6.75-.45 9.45-4.05-1.8 7.2-6.3 10.8-13.5 10.8-10.8 0-12.15-8.1-17.55-9.45-3.6-.9-6.75.45-9.45 4.05z"/>
      <path d="M0 38.3c1.8-7.2 6.3-10.8 13.5-10.8 10.8 0 12.15 8.1 17.55 9.45 3.6.9 6.75-.45 9.45-4.05-1.8 7.2-6.3 10.8-13.5 10.8-10.8 0-12.15-8.1-17.55-9.45-3.6-.9-6.75.45-9.45 4.05z"/>
    </g>
    <text
      x="68"
      y="40"
      font-family="Pretendard, -apple-system, BlinkMacSystemFont, 'Apple SD Gothic Neo', 'Noto Sans KR', sans-serif"
      font-size="36"
      font-weight="700"
      letter-spacing="-1"
      fill="#14b8a6"
    >코코밋</text>
  </g>
</svg>
